<?xml version="1.0" encoding="UTF-8"?>
<svg id="Layer_1" data-name="Layer 1" xmlns="http://www.w3.org/2000/svg" viewBox="0 0 1600 900">
  <defs>
    <style>
      .cls-1 {
        fill: #231f20;
      }
    </style>
  </defs>
  <path class="cls-1" d="M362.72,883.88h-101.31v-345.86H101.3v345.86H0V16.12h101.3v330.99h160.11V16.12h101.31v867.77Z"/>
  <path class="cls-1" d="M739.44,883.88h-305.69V16.12h298.12v180.98h-197.97v158.68h175.26v176.04h-175.26v171.08h205.54v180.98Z"/>
  <path class="cls-1" d="M869.29,841.74c-39-44.9-60.97-104.11-76.57-161.15-20.45-74.75-27.66-153.36-27.66-230.59,0-77.22,7.21-155.83,27.66-230.58,15.6-57.04,37.58-116.26,76.57-161.15C897.58,25.69,934.3.33,979.34,0c44.58-.33,81.93,26.29,109.47,58.26,38.64,44.87,60.75,103.35,76.57,160.53,20.72,74.92,27.66,153.87,27.66,231.2s-6.94,156.29-27.66,231.21c-15.81,57.17-37.92,115.65-76.57,160.53-27.55,31.99-64.88,58.59-109.47,58.26-45.04-.33-81.74-25.68-110.05-58.26ZM1036.11,675.62c20.76-25.26,31.65-59.01,39.89-91.12,11.2-43.65,14.56-89.72,14.56-134.51,0-44.79-3.36-90.86-14.56-134.5-8.24-32.1-19.14-65.87-39.89-91.12-13.74-16.72-33.19-32.56-56.77-32.23-24.18.34-42.84,14.87-57.35,32.23-20.97,25.08-31.67,59.38-39.59,91.12-10.9,43.66-14.27,89.65-14.27,134.5,0,44.85,3.36,90.84,14.27,134.51,7.93,31.74,18.61,66.02,39.59,91.12,14.53,17.38,33.16,31.89,57.35,32.23,23.59.33,43.02-15.5,56.77-32.23Z"/>
  <path class="cls-1" d="M1600,883.88h-83.84c-59.58-161.16-119.16-322.31-178.74-483.47v483.47h-100.14V16.12h83.84c59.59,161.15,119.16,322.31,178.74,483.47V16.12h100.14v867.77Z"/>
</svg>